<svg width="222" height="57" viewBox="0 0 222 57" fill="none" xmlns="http://www.w3.org/2000/svg">
<path d="M41.056 27.736C41.056 25.5173 41.536 23.544 42.496 21.816C43.456 20.0667 44.7893 18.712 46.496 17.752C48.224 16.7707 50.176 16.28 52.352 16.28C55.0187 16.28 57.3013 16.984 59.2 18.392C61.0987 19.8 62.368 21.72 63.008 24.152H56.992C56.544 23.2133 55.904 22.4987 55.072 22.008C54.2613 21.5173 53.3333 21.272 52.288 21.272C50.6027 21.272 49.2373 21.8587 48.192 23.032C47.1467 24.2053 46.624 25.7733 46.624 27.736C46.624 29.6987 47.1467 31.2667 48.192 32.44C49.2373 33.6133 50.6027 34.2 52.288 34.2C53.3333 34.2 54.2613 33.9547 55.072 33.464C55.904 32.9733 56.544 32.2587 56.992 31.32H63.008C62.368 33.752 61.0987 35.672 59.2 37.08C57.3013 38.4667 55.0187 39.16 52.352 39.16C50.176 39.16 48.224 38.68 46.496 37.72C44.7893 36.7387 43.456 35.384 42.496 33.656C41.536 31.928 41.056 29.9547 41.056 27.736ZM71.831 24.12C72.471 23.1387 73.271 22.3707 74.231 21.816C75.191 21.24 76.2577 20.952 77.431 20.952V26.744H75.927C74.5617 26.744 73.5377 27.0427 72.855 27.64C72.1723 28.216 71.831 29.24 71.831 30.712V39H66.359V21.144H71.831V24.12ZM78.9585 30.04C78.9585 28.2053 79.2998 26.5947 79.9825 25.208C80.6865 23.8213 81.6358 22.7547 82.8305 22.008C84.0252 21.2613 85.3585 20.888 86.8305 20.888C88.0892 20.888 89.1878 21.144 90.1265 21.656C91.0865 22.168 91.8225 22.84 92.3345 23.672V21.144H97.8065V39H92.3345V36.472C91.8012 37.304 91.0545 37.976 90.0945 38.488C89.1558 39 88.0572 39.256 86.7985 39.256C85.3478 39.256 84.0252 38.8827 82.8305 38.136C81.6358 37.368 80.6865 36.2907 79.9825 34.904C79.2998 33.496 78.9585 31.8747 78.9585 30.04ZM92.3345 30.072C92.3345 28.7067 91.9505 27.6293 91.1825 26.84C90.4358 26.0507 89.5185 25.656 88.4305 25.656C87.3425 25.656 86.4145 26.0507 85.6465 26.84C84.8998 27.608 84.5265 28.6747 84.5265 30.04C84.5265 31.4053 84.8998 32.4933 85.6465 33.304C86.4145 34.0933 87.3425 34.488 88.4305 34.488C89.5185 34.488 90.4358 34.0933 91.1825 33.304C91.9505 32.5147 92.3345 31.4373 92.3345 30.072ZM110.725 25.688H107.781V39H102.309V25.688H100.325V21.144H102.309V20.632C102.309 18.4347 102.939 16.7707 104.197 15.64C105.456 14.488 107.301 13.912 109.733 13.912C110.139 13.912 110.437 13.9227 110.629 13.944V18.584C109.584 18.52 108.848 18.6693 108.421 19.032C107.995 19.3947 107.781 20.0453 107.781 20.984V21.144H110.725V25.688ZM123.249 34.36V39H120.465C118.481 39 116.934 38.52 115.825 37.56C114.715 36.5787 114.161 34.9893 114.161 32.792V25.688H111.985V21.144H114.161V16.792H119.633V21.144H123.217V25.688H119.633V32.856C119.633 33.3893 119.761 33.7733 120.017 34.008C120.273 34.2427 120.699 34.36 121.297 34.36H123.249ZM151.737 16.536V39H146.265V25.528L141.241 39H136.825L131.769 25.496V39H126.297V16.536H132.76L139.065 32.088L145.305 16.536H151.737ZM173.912 21.144L162.712 47.48H156.824L160.92 38.392L153.655 21.144H159.768L163.896 32.312L167.992 21.144H173.912ZM174.962 27.736C174.962 25.5173 175.442 23.544 176.402 21.816C177.362 20.0667 178.696 18.712 180.402 17.752C182.13 16.7707 184.082 16.28 186.258 16.28C188.925 16.28 191.208 16.984 193.106 18.392C195.005 19.8 196.274 21.72 196.914 24.152H190.898C190.45 23.2133 189.81 22.4987 188.978 22.008C188.168 21.5173 187.24 21.272 186.194 21.272C184.509 21.272 183.144 21.8587 182.098 23.032C181.053 24.2053 180.53 25.7733 180.53 27.736C180.53 29.6987 181.053 31.2667 182.098 32.44C183.144 33.6133 184.509 34.2 186.194 34.2C187.24 34.2 188.168 33.9547 188.978 33.464C189.81 32.9733 190.45 32.2587 190.898 31.32H196.914C196.274 33.752 195.005 35.672 193.106 37.08C191.208 38.4667 188.925 39.16 186.258 39.16C184.082 39.16 182.13 38.68 180.402 37.72C178.696 36.7387 177.362 35.384 176.402 33.656C175.442 31.928 174.962 29.9547 174.962 27.736ZM221.353 16.536L213.385 39H206.537L198.569 16.536H204.393L209.961 33.496L215.561 16.536H221.353Z" fill="black"/>
<g clip-path="url(#clip0_2_14)">
<path d="M1.78025e-06 23.6364H20.3636V44H0L1.78025e-06 23.6364Z" fill="#A0D6FA"/>
<path d="M7.27271 12H32V36.7273H19.6363C12.8081 36.7273 7.27271 31.1919 7.27271 24.3636V12Z" fill="#2F8DEB"/>
<path d="M7.27271 23.6364H20.3636V36.7273H19.5804C12.783 36.7273 7.27271 31.2169 7.27271 24.4196V23.6364Z" fill="white"/>
</g>
<defs>
<clipPath id="clip0_2_14">
<rect width="32" height="32" fill="white" transform="translate(0 12)"/>
</clipPath>
</defs>
</svg>
